<?xml version="1.0" standalone="no"?>
<!DOCTYPE svg PUBLIC "-//W3C//DTD SVG 20010904//EN"
 "http://www.w3.org/TR/2001/REC-SVG-20010904/DTD/svg10.dtd">
<svg version="1.0" xmlns="http://www.w3.org/2000/svg"
 width="260.000000pt" height="260.000000pt" viewBox="0 0 260.000000 260.000000"
 preserveAspectRatio="xMidYMid meet">
<metadata>
Created by potrace 1.14, written by Peter Selinger 2001-2017
</metadata>
<g transform="translate(0.000000,260.000000) scale(0.100000,-0.100000)"
fill="#000000" stroke="none">
<path d="M283 1663 c4 -6 2 -13 -5 -15 -6 -2 -12 -12 -14 -21 -1 -9 1 -15 5
-13 4 3 7 -4 7 -14 0 -10 -4 -16 -8 -14 -13 8 -9 -11 5 -25 10 -11 10 -13 0
-7 -8 5 -13 1 -13 -9 0 -9 4 -14 9 -11 5 4 8 -2 6 -11 -2 -10 -4 -18 -5 -18
-1 0 -3 -8 -5 -18 -2 -9 0 -15 4 -13 4 3 7 -4 7 -14 0 -10 -4 -16 -8 -14 -10
6 -11 -10 -1 -20 10 -9 13 -37 4 -31 -4 2 -8 -2 -8 -10 0 -8 3 -12 7 -10 3 2
6 -5 6 -15 0 -10 -4 -16 -8 -14 -13 8 -9 -11 5 -25 10 -11 10 -13 0 -7 -8 5
-13 1 -13 -9 0 -9 4 -14 9 -11 5 4 8 -2 6 -11 -2 -10 -4 -18 -5 -18 -1 0 -3
-8 -5 -18 -2 -9 0 -15 4 -13 4 3 7 -4 7 -14 0 -10 -4 -16 -8 -14 -10 6 -11
-10 -1 -20 10 -9 13 -37 4 -31 -4 2 -8 -2 -8 -10 0 -8 3 -12 7 -10 3 2 6 -5 6
-15 0 -10 -4 -16 -8 -14 -13 8 -9 -11 5 -25 10 -11 10 -13 0 -7 -8 5 -13 1
-13 -9 0 -9 4 -14 9 -11 5 4 8 -2 6 -11 -2 -10 -4 -18 -5 -18 -7 0 -6 -36 1
-41 5 -3 5 -13 -1 -24 -8 -15 -6 -20 13 -26 37 -13 47 -13 47 -1 0 8 3 9 8 1
9 -14 164 -13 174 1 5 6 8 5 8 -3 0 -15 41 -13 52 3 5 6 8 5 8 -2 0 -7 5 -13
11 -13 5 0 7 6 3 13 -6 10 -4 10 7 0 7 -7 18 -13 24 -13 5 0 3 5 -5 10 -11 7
1 10 40 10 32 0 63 7 74 15 10 8 23 12 28 9 5 -3 7 0 6 7 -2 7 7 18 19 24 13
7 20 15 16 18 -3 4 2 7 13 7 13 0 15 3 7 8 -9 6 -7 12 7 22 13 9 20 26 20 48
0 18 4 31 9 28 5 -3 9 66 10 159 0 123 -3 165 -12 165 -8 0 -6 4 3 10 10 6 11
10 3 10 -8 0 -13 13 -13 31 0 17 -4 28 -10 24 -6 -3 -10 4 -10 15 0 14 -8 24
-21 27 -14 4 -17 8 -9 13 8 5 1 12 -19 21 -17 8 -31 17 -31 21 0 5 -12 8 -26
8 -14 0 -23 4 -19 10 4 6 -8 10 -28 10 -18 0 -37 3 -41 7 -10 10 -37 13 -31 3
6 -9 -14 -8 -30 1 -17 10 -76 8 -70 -2 4 -5 1 -9 -4 -9 -6 0 -11 4 -11 8 0 5
-20 9 -45 9 -31 1 -43 -3 -38 -11 3 -6 0 -6 -8 2 -7 6 -25 12 -40 12 -15 0
-30 -6 -32 -12 -4 -10 -6 -10 -6 0 -1 6 -6 12 -12 12 -5 0 -7 -6 -3 -12 5 -8
0 -7 -11 2 -10 8 -16 10 -12 3z m167 -125 c0 -9 3 -9 12 0 7 7 21 12 33 12 17
0 18 -2 5 -11 -13 -10 -13 -10 0 -6 8 3 24 9 34 13 15 6 17 4 11 -7 -8 -12 -6
-12 8 0 11 9 17 10 17 2 0 -6 5 -11 11 -11 5 0 7 5 4 11 -7 11 -2 9 52 -19 13
-7 30 -12 38 -12 8 0 15 -9 15 -19 0 -11 4 -21 9 -23 5 -1 11 -19 12 -38 2
-19 8 -39 14 -43 6 -6 5 -10 -4 -14 -11 -5 -11 -7 0 -15 12 -8 12 -10 0 -15
-11 -5 -11 -7 0 -15 12 -8 12 -10 0 -15 -11 -5 -11 -7 0 -14 12 -8 11 -11 -1
-19 -10 -6 -11 -10 -2 -10 6 0 12 -5 12 -11 0 -5 -4 -8 -8 -5 -4 2 -8 -4 -8
-14 0 -10 3 -17 7 -15 9 6 5 -52 -4 -61 -4 -4 -7 -17 -7 -29 0 -35 -47 -75
-87 -75 -25 0 -32 -3 -27 -12 5 -8 0 -7 -11 2 -11 9 -16 10 -11 3 4 -7 3 -13
-1 -13 -5 0 -15 6 -22 13 -11 10 -13 10 -7 0 9 -16 -10 -17 -19 -3 -5 7 -11 8
-19 1 -6 -5 -28 -9 -49 -8 -31 2 -37 6 -38 25 -2 31 -3 35 -13 51 -6 9 -5 12
1 8 7 -4 11 20 12 68 1 55 -2 75 -11 75 -8 0 -9 3 -3 8 14 9 14 45 0 54 -7 5
-7 8 0 8 7 0 11 36 12 90 1 59 -2 88 -8 84 -6 -3 -5 3 3 15 14 23 38 28 38 9z"/>
<path d="M1361 1553 c1 -75 -3 -119 -10 -121 -6 -2 -11 1 -11 7 0 6 -7 11 -16
11 -8 0 -13 4 -10 8 3 5 -9 9 -26 10 -17 0 -35 7 -40 14 -6 10 -10 10 -18 -2
-6 -10 -10 -11 -10 -2 0 7 -13 12 -31 12 -21 0 -28 -4 -23 -12 5 -10 4 -10 -6
-1 -7 7 -19 8 -29 3 -9 -4 -29 -14 -46 -21 -36 -17 -46 -26 -64 -61 -8 -16
-18 -28 -23 -28 -4 0 -8 -16 -8 -36 0 -19 -4 -33 -8 -30 -5 3 -9 -1 -9 -9 0
-8 5 -11 11 -8 6 4 5 0 -2 -9 -14 -18 -14 -191 0 -182 4 3 8 -4 8 -15 0 -35
72 -142 95 -141 21 1 26 -1 21 -8 -3 -4 33 -9 80 -11 54 -1 84 1 84 8 0 6 14
11 32 11 17 0 28 3 25 7 -10 9 31 35 43 28 6 -4 8 -10 5 -15 -3 -5 -1 -11 5
-15 6 -4 8 -10 6 -14 -3 -4 13 -8 34 -8 24 0 37 3 34 9 -4 6 3 5 14 -1 15 -8
23 -8 27 0 6 8 9 456 6 697 l-1 42 -69 0 -70 0 0 -117z m-69 -193 c2 -6 13
-12 25 -13 12 0 20 -4 17 -8 -2 -4 3 -14 11 -22 11 -12 15 -39 15 -112 0 -83
-3 -100 -22 -128 -13 -18 -29 -32 -35 -33 -38 -3 -44 -5 -39 -12 3 -5 -8 -8
-24 -8 -16 0 -27 3 -24 8 3 4 -9 8 -27 8 -18 0 -29 3 -26 7 4 3 -2 12 -13 20
-11 8 -20 25 -20 39 0 16 -4 23 -11 18 -8 -5 -8 -1 0 14 7 14 8 23 1 27 -15 9
-13 75 3 76 8 0 8 2 -2 6 -11 5 -11 7 0 14 12 7 11 9 -1 9 -10 0 -11 3 -3 8 6
4 13 16 15 27 7 43 39 64 100 64 31 1 58 -4 60 -9z"/>
<path d="M1663 1656 c1 -6 -5 -10 -13 -8 -12 3 -13 1 -2 -9 13 -14 17 -33 4
-25 -4 2 -8 -4 -8 -14 0 -10 3 -17 6 -15 4 2 7 -9 7 -25 0 -16 -3 -27 -7 -25
-3 2 -6 -5 -6 -15 0 -10 3 -17 6 -15 4 2 7 -9 7 -25 0 -16 -3 -27 -7 -25 -3 2
-6 -5 -6 -15 0 -10 3 -17 6 -15 4 2 7 -9 7 -25 0 -16 -3 -27 -7 -25 -3 2 -6
-5 -6 -15 0 -10 3 -17 6 -15 4 2 7 -9 7 -25 0 -16 -3 -27 -7 -25 -3 2 -6 -5
-6 -15 0 -10 3 -17 6 -15 4 2 7 -9 7 -25 0 -16 -3 -27 -7 -25 -3 2 -6 -5 -6
-15 0 -10 3 -17 6 -15 4 2 7 -9 7 -25 0 -16 -3 -27 -7 -25 -3 2 -6 -5 -6 -15
0 -10 3 -17 6 -15 4 2 7 -9 7 -25 0 -16 -3 -27 -7 -25 -3 2 -6 -5 -6 -15 0
-10 4 -16 8 -14 12 8 10 -10 -3 -23 -8 -8 -8 -13 0 -17 6 -4 11 -12 11 -17 0
-6 -4 -8 -9 -5 -5 4 -4 -5 2 -18 11 -24 45 -30 59 -11 5 6 8 5 8 -2 0 -7 12
-11 29 -10 16 1 29 7 28 12 -1 6 3 9 10 8 6 -1 10 5 8 15 -2 9 -4 17 -5 17 -1
0 -3 8 -5 18 -2 9 0 15 5 12 5 -3 7 3 5 12 -2 10 -4 18 -5 18 -1 0 -3 8 -5 18
-2 9 1 15 6 11 10 -6 12 19 2 30 -10 10 -13 37 -3 31 5 -3 7 3 5 12 -2 10 -4
18 -5 18 -1 0 -3 8 -5 18 -2 9 1 15 6 11 5 -3 9 2 9 10 0 8 -4 17 -9 20 -10 7
-9 25 2 42 3 6 3 14 0 18 -11 10 -12 37 -2 30 5 -3 9 2 9 11 0 10 -5 13 -12 9
-10 -6 -10 -5 -1 8 7 8 10 18 6 22 -11 10 -12 37 -2 30 5 -3 7 -10 4 -15 -3
-5 0 -7 7 -4 12 5 41 -43 44 -70 2 -22 17 -45 25 -39 5 3 9 2 8 -3 -4 -23 2
-43 11 -38 6 4 10 3 9 -2 -4 -24 2 -53 11 -48 6 3 10 -1 10 -9 0 -9 5 -16 10
-16 6 0 9 -3 9 -7 -4 -27 4 -33 49 -33 49 0 82 20 82 48 0 7 5 12 11 12 5 0 8
4 4 9 -3 5 2 16 10 24 8 9 15 25 15 37 0 12 4 19 8 16 4 -2 14 10 21 27 7 18
17 40 22 49 5 10 9 23 9 30 0 7 9 19 21 26 19 12 20 11 17 -10 -2 -13 -7 -26
-13 -30 -6 -5 -5 -8 4 -8 9 0 10 -4 4 -12 -11 -15 -11 -28 0 -45 5 -8 3 -13
-5 -13 -9 0 -9 -3 2 -10 13 -9 13 -11 0 -20 -10 -6 -11 -10 -2 -10 6 0 12 -5
12 -11 0 -5 -3 -8 -8 -5 -4 2 -8 -9 -9 -26 0 -21 2 -26 8 -17 7 11 9 11 9 -3
0 -9 -6 -19 -12 -21 -10 -4 -10 -6 0 -6 6 -1 12 -6 12 -12 0 -5 -6 -7 -12 -3
-10 6 -10 4 0 -7 14 -15 16 -33 4 -25 -11 6 -9 -34 1 -51 5 -8 3 -13 -5 -13
-9 0 -9 -3 2 -10 13 -9 13 -11 0 -20 -10 -6 -11 -10 -2 -10 7 0 12 -13 12 -31
0 -28 2 -30 17 -18 11 10 14 10 9 2 -9 -17 6 -17 23 0 8 6 11 7 8 1 -3 -6 8
-10 29 -11 24 -1 34 3 34 14 0 8 5 11 11 7 7 -4 7 1 -1 16 -8 15 -8 20 -1 16
6 -4 11 -4 11 -1 0 4 -5 16 -11 27 -8 15 -8 19 0 14 14 -9 14 0 0 26 -8 15 -8
19 0 14 14 -9 14 7 0 21 -8 8 -8 13 0 17 6 4 11 15 11 24 0 13 -2 14 -9 4 -5
-8 -7 0 -7 22 1 19 4 32 8 29 5 -2 8 0 8 6 0 5 -6 11 -12 14 -10 4 -10 7 0 18
6 7 12 17 12 22 0 4 -6 5 -12 1 -10 -6 -10 -4 0 7 13 14 17 33 4 25 -4 -2 -8
4 -8 14 0 10 4 16 8 14 11 -7 10 4 -3 28 -8 15 -8 19 0 14 14 -9 14 0 0 26 -8
15 -8 19 0 14 14 -9 14 7 0 21 -8 8 -8 13 0 17 6 4 11 15 11 24 0 13 -2 14 -9
4 -5 -8 -7 0 -7 22 1 19 4 32 8 29 5 -2 8 0 8 6 0 5 -6 11 -12 14 -10 4 -10 7
0 18 6 7 12 17 12 22 0 4 -6 5 -12 1 -10 -6 -10 -4 0 7 13 14 17 33 4 25 -4
-2 -8 4 -8 14 0 10 4 17 8 14 4 -2 6 4 5 15 0 11 -5 17 -9 15 -4 -3 -8 2 -8
10 0 9 -7 16 -16 16 -8 0 -13 -4 -10 -9 7 -10 -13 -9 -30 2 -15 9 -64 5 -58
-4 2 -4 -7 -19 -21 -33 -14 -14 -25 -32 -25 -41 0 -8 -4 -15 -10 -15 -5 0 -10
-9 -10 -20 0 -11 -4 -20 -10 -20 -5 0 -10 -9 -10 -20 0 -11 -4 -20 -10 -20 -5
0 -10 -9 -10 -20 0 -11 -4 -20 -10 -20 -5 0 -10 -9 -10 -21 0 -11 -4 -17 -10
-14 -5 3 -10 -3 -10 -15 0 -12 -4 -18 -10 -15 -5 3 -10 0 -10 -7 0 -20 -24
-68 -33 -68 -5 0 -6 -4 -2 -9 3 -5 1 -12 -5 -16 -6 -4 -7 -11 -4 -17 4 -7 2
-8 -4 -4 -7 4 -12 16 -12 27 0 10 -4 19 -10 19 -5 0 -10 9 -10 20 0 11 -7 20
-15 20 -8 0 -15 9 -15 20 0 11 -4 20 -10 20 -5 0 -10 7 -10 16 0 8 -4 13 -8
10 -4 -2 -9 7 -10 21 -1 14 -11 33 -22 43 -11 10 -20 25 -20 34 0 9 -4 16 -10
16 -5 0 -10 9 -10 20 0 11 -5 20 -11 20 -5 0 -8 4 -4 9 3 5 -2 16 -10 24 -8 9
-15 22 -15 30 0 7 -10 18 -22 24 -30 14 -81 16 -73 3 3 -6 1 -10 -4 -10 -6 0
-11 4 -11 8 0 5 -6 9 -14 9 -8 0 -14 -5 -13 -11z"/>
</g>
</svg>
